<svg width="87" height="71" viewBox="0 0 87 71" fill="none" xmlns="http://www.w3.org/2000/svg">
<path d="M2.92843 21.6414C2.92843 21.6414 3.58221 21.7456 4.88976 21.954C6.19461 22.1538 7.48713 22.424 8.76732 22.7645C10.0475 23.1051 11.6231 23.4435 13.494 23.7797C15.3662 24.1202 17.3913 24.5436 19.5692 25.0498C21.7519 25.5546 24.0418 26.1231 26.4389 26.7556C28.8373 27.3923 31.2336 28.0726 33.6275 28.7963C36.0201 29.5156 38.3758 30.2014 40.6945 30.8536C43.0133 31.5058 45.5961 32.2251 48.4432 33.0113C51.295 33.796 54.2098 34.6299 57.1876 35.5129C60.1654 36.396 62.7736 37.2047 65.0123 37.939C67.2524 38.6776 69.4668 39.3174 71.6555 39.8582C73.8455 40.4034 75.614 40.8429 76.9608 41.1769C78.3015 41.508 78.6733 41.1588 78.0761 40.1293C77.4803 39.1041 76.8282 38.0679 76.1198 37.0209C75.4115 35.9739 74.6687 35.0113 73.8916 34.1331C73.1145 33.255 71.9045 31.9563 70.2615 30.2373C68.6185 28.5182 67.223 27.2349 66.0748 26.3873C64.9267 25.5397 63.9405 24.7199 63.1163 23.9277C62.2921 23.1355 61.2698 22.2509 60.0495 21.2739C58.8256 20.3027 57.9502 19.6929 57.423 19.4445C56.8946 19.1918 56.5264 18.9697 56.3184 18.7782C56.1104 18.5867 55.9328 18.3738 55.7855 18.1395C55.6368 17.901 55.5218 17.6519 55.4405 17.3922C55.3579 17.1282 55.3127 16.8572 55.305 16.5793C55.2973 16.3013 55.3267 16.0237 55.3931 15.7463C55.4548 15.4704 55.5538 15.2041 55.6903 14.9476C55.8267 14.691 55.9916 14.4494 56.1849 14.2225C56.3796 14 56.6023 13.7996 56.8531 13.6213C57.0991 13.4445 57.3618 13.2958 57.6412 13.1751C57.9254 13.0528 58.2167 12.9617 58.515 12.9015C58.8148 12.8457 59.1167 12.8225 59.421 12.8318C59.7252 12.8411 60.0214 12.8838 60.3096 12.9599C60.5977 13.036 60.8692 13.1435 61.1241 13.2823C61.3777 13.4167 61.8596 13.867 62.5699 14.6331C63.2788 15.3948 63.9183 16.1711 64.4884 16.962C65.0619 17.7471 65.6647 18.592 66.2967 19.4966C66.9226 20.3983 67.5569 21.4115 68.1997 22.536C68.8411 23.6563 69.4944 24.73 70.1596 25.7573C70.8248 26.7845 71.4953 27.7697 72.1711 28.7129C72.8484 29.6604 73.5104 30.5342 74.1574 31.3343C74.8008 32.1402 75.5546 32.9521 76.4185 33.7698C77.2837 34.5919 78.3188 35.703 79.5235 37.1031C80.7297 38.5074 81.6965 39.8988 82.424 41.2772C83.1529 42.66 83.4265 44.0236 83.2447 45.3683C83.0595 46.7188 82.505 47.7762 81.5813 48.5405C80.6575 49.3049 79.367 49.9108 77.7097 50.3583C76.0476 50.8073 74.5193 51.0338 73.125 51.0379C71.7258 51.0434 70.4325 51.0491 69.2448 51.055C68.0559 51.0565 66.7702 51.0954 65.3879 51.1717C64.007 51.2524 62.5663 51.404 61.0659 51.6265C59.5607 51.8506 58.023 52.1229 56.4528 52.4433C54.8874 52.7623 53.3047 53.127 51.7045 53.5376C50.1044 53.9482 48.3051 54.4235 46.3068 54.9636C44.3084 55.5036 42.8777 55.949 42.0149 56.2999C41.1582 56.6536 40.6263 56.8629 40.4193 56.9277C40.2171 56.991 40.0084 57.0254 39.7934 57.0309C39.5832 57.0349 39.3794 57.0085 39.1818 56.9515C38.9829 56.8902 38.7995 56.8027 38.6317 56.6889C38.4688 56.5736 38.3313 56.4384 38.2193 56.2834C38.1108 56.1225 38.0299 55.9483 37.9764 55.7607C37.9292 55.5759 37.9169 55.3849 37.9398 55.1877C37.9592 54.9963 38.0115 54.8089 38.0968 54.6254C38.1821 54.4418 38.2989 54.2746 38.4473 54.1236C38.5908 53.9742 38.7545 53.8469 38.9383 53.7418C39.1283 53.6396 39.3272 53.5655 39.5348 53.5195C39.7424 53.4735 39.9517 53.4579 40.1625 53.4727C40.3746 53.4918 40.575 53.5408 40.7635 53.6195C40.952 53.6983 41.1195 53.8027 41.2659 53.9327C41.4124 54.0627 41.5333 54.2125 41.6287 54.3822C41.7193 54.5535 41.7786 54.7345 41.8066 54.9253C41.8298 55.1176 41.8214 55.3103 41.7814 55.5034C41.7366 55.698 41.6616 55.8807 41.5564 56.0514C41.4478 56.2279 41.3142 56.3838 41.1557 56.519C40.9923 56.6556 40.8129 56.7664 40.6174 56.8514C40.422 56.9363 40.2171 56.991 40.0027 57.0153C39.7944 57.0425 39.5863 57.0363 39.3784 56.9969C39.1718 56.9618 38.9818 56.8953 38.8085 56.7975C38.629 56.6969 38.4743 56.5743 38.3444 56.4296C38.2097 56.2864 38.1084 56.1233 38.0405 55.9402C37.9692 55.763 37.9322 55.5773 37.9297 55.3833C37.9271 55.1893 37.9568 54.9971 38.0187 54.8066C38.0869 54.619 38.1828 54.444 38.3064 54.2818C38.4349 54.118 38.586 53.9757 38.7596 53.8548C38.9332 53.7339 39.02 53.6735 39.02 53.6735C39.02 53.6735 39.4198 53.4391 40.2193 52.9702C41.0188 52.5014 42.3695 51.5725 44.2713 50.1836C46.1779 48.7932 48.0187 47.7157 49.7934 46.9511C51.5717 46.1806 53.3747 45.5402 55.2027 45.0297C57.0244 44.5165 58.8343 44.1258 60.6323 43.8576C62.429 43.585 64.0998 43.4089 65.6449 43.3291C67.1852 43.2509 68.5736 43.2107 69.8099 43.2086C71.0449 43.2022 72.2885 43.1978 73.5407 43.1955C74.7915 43.1889 74.9188 42.5907 73.9225 41.4009C72.9263 40.2112 71.9129 39.11 70.8822 38.0973C69.8502 37.0804 68.9807 36.1266 68.2737 35.2359C67.5668 34.3453 66.848 33.3918 66.1175 32.3755C65.3905 31.3533 64.6644 30.2834 63.9392 29.1656C63.2201 28.0507 62.5849 27.0093 62.0335 26.0415C61.4821 25.0736 60.8899 24.1447 60.2571 23.2546C59.623 22.3602 58.8584 21.4377 57.9635 20.4871C57.0747 19.5393 56.5264 18.9697 56.3184 18.7782C56.1104 18.5867 55.9328 18.3738 55.7855 18.1395C55.6368 17.901 55.5218 17.6519 55.4405 17.3922C55.3579 17.1282 55.3127 16.8572 55.305 16.5793C55.2973 16.3013 55.3267 16.0237 55.3931 15.7463C55.4548 15.4704 55.5538 15.2041 55.6903 14.9476C55.8267 14.691 55.9916 14.4494 56.1849 14.2225C56.3796 14 56.5999 13.8004 56.8459 13.6236C57.0967 13.4453 57.3618 13.2958 57.6412 13.1751C57.9206 13.0543 58.2119 12.9632 58.515 12.9015C58.8148 12.8457 59.1167 12.8225 59.421 12.8318C59.7252 12.8411 60.0214 12.8838 60.3096 12.9599C60.5977 13.036 60.8692 13.1435 61.1241 13.2823C61.3777 13.4167 61.6252 13.5151 61.8667 13.5773C62.1034 13.641 62.6902 14.0632 63.6271 14.8438C64.5653 15.6288 65.4665 16.4135 66.3305 17.198C67.1946 17.9824 67.9646 18.8295 68.6406 19.7394C69.3118 20.6507 69.9515 21.6812 70.5599 22.8308C71.1668 23.9761 72.3026 25.4595 73.9671 27.2811C75.6316 29.1028 76.8988 30.5165 77.7687 31.5225C78.6401 32.5327 79.437 33.5757 80.1597 34.6515C80.8872 35.7258 81.5763 36.7789 82.227 37.8106C82.8777 38.8424 83.4552 39.8259 83.9594 40.761C84.4587 41.6976 84.4252 42.7559 83.8589 43.9358C83.2925 45.1157 82.1087 45.674 80.3073 45.6106C78.506 45.5472 76.9319 45.3486 75.585 45.0146C74.2382 44.6807 72.42 44.2258 70.1305 43.65C67.8457 43.0727 65.6019 42.4231 63.3988 41.7015C61.1958 40.9798 58.6202 40.1823 55.6719 39.309C52.7174 38.4328 49.8129 37.5981 46.9583 36.8047C44.1051 36.0157 41.5051 35.2924 39.1583 34.6347C36.8114 33.977 34.4667 33.2925 32.1242 32.5813C29.7817 31.87 27.4321 31.2036 25.0755 30.5823C22.7175 29.9566 20.4825 29.3946 18.3705 28.8963C16.2647 28.4008 14.2198 27.9646 12.2357 27.5877C10.253 27.2153 8.67168 26.8668 7.4917 26.5424C6.3179 26.2208 5.08977 25.9115 3.80733 25.6144C2.53106 25.3201 1.8192 25.1486 1.67174 25.0997C1.52563 25.0551 1.3899 24.9931 1.26456 24.9135C1.1344 24.8355 1.01838 24.7435 0.916501 24.6376C0.814624 24.5316 0.728244 24.4161 0.65736 24.291C0.586476 24.1659 0.535528 24.0369 0.504516 23.9041C0.470794 23.7626 0.455279 23.6201 0.457969 23.4767C0.46412 23.3275 0.487423 23.1824 0.527881 23.0414C0.568338 22.9005 0.629033 22.765 0.709966 22.6352C0.78473 22.5025 0.876273 22.3811 0.984593 22.2712C1.09156 22.1569 1.21116 22.0577 1.34341 21.9736C1.4743 21.8851 1.61543 21.8124 1.76679 21.7555C1.91333 21.7001 2.0653 21.6621 2.22268 21.6413C2.37871 21.6162 2.53534 21.61 2.69258 21.6225C2.84981 21.6351 2.92843 21.6414 2.92843 21.6414Z" fill="#E03131"/>
</svg>
