<svg width="372" height="41" viewBox="0 0 372 41" fill="none" xmlns="http://www.w3.org/2000/svg">
<path d="M4.26846 10.2976C4.26846 10.2976 6.66102 9.55921 11.4461 8.08238C16.2398 6.61394 21.2026 5.75693 26.3345 5.51135C31.4672 5.25826 36.0602 5.16217 40.1133 5.22308C44.1664 5.28399 48.6845 5.29071 53.6676 5.24324C58.6506 5.19577 66.1697 5.19327 76.2248 5.23574C86.2884 5.28661 97.2801 5.24789 109.2 5.11957C121.11 4.99789 134.938 4.72197 150.686 4.29179C166.425 3.85322 181.186 3.44637 194.968 3.07124C208.751 2.68859 221.774 2.28649 234.038 1.86492C246.311 1.44423 259.274 1.18802 272.927 1.09629C286.57 1.0112 298.199 0.961287 307.814 0.946552C317.439 0.925178 325.63 1.03612 332.387 1.27937C339.145 1.51511 344.603 1.74429 348.761 1.96692C352.911 2.18867 356.223 2.47078 358.698 2.81326C361.174 3.14823 362.547 3.3552 362.818 3.43416C363.09 3.50562 363.58 3.63198 364.287 3.81324C364.995 3.98699 365.673 4.22618 366.322 4.5308C366.961 4.84206 367.553 5.20572 368.099 5.62179C368.643 6.04538 369.119 6.51541 369.524 7.03189C369.931 7.54086 370.26 8.08414 370.511 8.66171C370.763 9.23176 370.926 9.81601 370.999 10.4145C371.08 11.0213 371.07 11.6194 370.967 12.2086C370.873 12.7988 370.689 13.3688 370.413 13.9189C370.147 14.4698 369.801 14.9827 369.375 15.4577C368.948 15.9401 368.457 16.3672 367.901 16.7388C367.345 17.1104 366.74 17.4241 366.084 17.68C365.428 17.9283 364.742 18.1093 364.026 18.2228C363.309 18.3364 362.585 18.3773 361.854 18.3454C361.114 18.3127 357.999 18.6409 352.509 19.33C347.009 20.0258 341.807 20.5717 336.902 20.9679C331.998 21.3566 325.618 21.8811 317.762 22.5415C309.916 23.1953 302.221 23.9734 294.676 24.8758C287.131 25.7783 279.442 26.6404 271.608 27.4621C263.774 28.2838 255.294 29.1994 246.17 30.2089C237.045 31.2183 229.108 32.2918 222.358 33.4294C215.618 34.5679 209.746 35.6603 204.741 36.7068C199.737 37.7532 195.654 38.6448 192.49 39.3817C189.328 40.1111 186.157 40.3922 182.978 40.2252C179.799 40.0506 178.021 39.9984 177.643 40.0684C177.256 40.1301 176.869 40.1424 176.483 40.1055C176.087 40.0677 175.71 39.9787 175.352 39.8383C174.994 39.698 174.667 39.5189 174.372 39.3012C174.078 39.0759 173.837 38.8217 173.651 38.5384C173.456 38.2468 173.322 37.9421 173.25 37.6243C173.169 37.3057 173.158 36.9899 173.215 36.6769C173.265 36.3555 173.377 36.0554 173.552 35.7763C173.727 35.4973 173.956 35.2461 174.237 35.0228C174.509 34.806 174.823 34.6312 175.179 34.4984C175.526 34.3648 175.896 34.2825 176.289 34.2518C176.673 34.2202 177.056 34.2417 177.439 34.3161C177.832 34.3915 178.196 34.5135 178.533 34.6822C178.879 34.8517 179.18 35.0586 179.435 35.3029C179.7 35.5481 179.91 35.8222 180.067 36.1254C180.224 36.4285 180.32 36.7372 180.355 37.0514C180.38 37.3723 180.345 37.6875 180.251 37.997C180.156 38.3064 180.003 38.5952 179.792 38.8631C179.581 39.1236 179.323 39.3492 179.017 39.5399C178.71 39.7381 178.375 39.8843 178.013 39.9787C177.641 40.0797 177.261 40.1267 176.871 40.1199C176.481 40.1206 176.096 40.0686 175.716 39.9641C175.346 39.8529 174.998 39.6984 174.673 39.5006C174.358 39.3036 174.087 39.073 173.862 38.8088C173.628 38.5362 173.456 38.2468 173.346 37.9406C173.227 37.6259 173.174 37.3099 173.185 36.9925C173.198 36.6676 173.269 36.3597 173.399 36.0688C173.539 35.7713 173.732 35.5015 173.978 35.2596C174.224 35.0102 174.509 34.806 174.83 34.6471C175.162 34.4816 175.328 34.3989 175.328 34.3989C175.328 34.3989 176.373 33.4674 178.465 31.6045C180.555 29.749 183.332 28.1032 186.794 26.6669C190.257 25.223 194.641 23.8596 199.946 22.5765C205.252 21.2934 211.479 20.0377 218.627 18.8092C225.776 17.5808 233.931 16.4561 243.094 15.4352C252.248 14.4058 260.701 13.4763 268.453 12.6467C276.195 11.8162 283.964 10.9428 291.761 10.0265C299.558 9.10265 307.394 8.31517 315.267 7.66404C323.141 7.0129 329.436 6.49925 334.153 6.12307C338.871 5.74689 343.092 5.35751 346.818 4.95493C350.552 4.56075 354.22 4.22849 357.822 3.95814C361.425 3.68028 363.58 3.63198 364.287 3.81324C364.995 3.98699 365.673 4.22618 366.322 4.5308C366.961 4.84206 367.553 5.20572 368.099 5.62179C368.643 6.04538 369.119 6.51541 369.524 7.03189C369.931 7.54086 370.26 8.08414 370.511 8.66171C370.763 9.23176 370.926 9.81601 370.999 10.4145C371.081 11.0138 371.07 11.6118 370.967 12.2086C370.873 12.7988 370.689 13.3688 370.413 13.9189C370.147 14.4698 369.801 14.9827 369.375 15.4577C368.948 15.9401 368.457 16.3672 367.901 16.7388C367.345 17.1104 366.74 17.4241 366.084 17.68C365.428 17.9283 364.742 18.1093 364.026 18.2228C363.309 18.3364 362.585 18.3773 361.854 18.3454C361.114 18.3127 359.702 18.1247 357.617 17.7816C355.522 17.4451 352.47 17.165 348.46 16.9414C344.44 16.7245 339.191 16.5 332.711 16.2681C326.232 16.0287 318.199 15.9177 308.612 15.935C299.026 15.9449 287.513 15.9908 274.075 16.0726C260.627 16.1461 247.745 16.3873 235.427 16.796C223.108 17.2123 210.053 17.6039 196.262 17.9706C182.471 18.3373 167.643 18.7226 151.777 19.1263C135.902 19.5366 121.95 19.7894 109.922 19.8847C97.8852 19.9715 86.8503 19.9758 76.8172 19.8975C66.7763 19.8033 59.1869 19.7156 54.049 19.6346C48.911 19.5535 44.5092 19.4479 40.8435 19.3178C37.1778 19.1878 32.8197 19.1584 27.7694 19.2298C22.7099 19.3003 17.6418 18.8278 12.5652 17.8123C7.48935 16.7892 4.80342 16.2712 4.50745 16.2581C4.22068 16.2458 3.93678 16.2036 3.65575 16.1312C3.36552 16.058 3.09196 15.9561 2.83508 15.8254C2.57748 15.7022 2.3408 15.5545 2.12505 15.3822C1.90929 15.21 1.72293 15.0216 1.56599 14.817C1.40976 14.6049 1.28222 14.3842 1.18337 14.1549C1.08452 13.9255 1.01861 13.6917 0.985623 13.4535C0.962561 13.2086 0.971355 12.9706 1.01201 12.7394C1.05337 12.5007 1.13084 12.273 1.24441 12.0564C1.35798 11.8397 1.50304 11.6336 1.67961 11.4382C1.84625 11.2493 2.04331 11.0824 2.27079 10.9373C2.499 10.7846 2.7477 10.6605 3.0169 10.5649C3.27689 10.4684 3.55279 10.3999 3.84458 10.3595C4.12717 10.3183 4.26846 10.2976 4.26846 10.2976Z" fill="#E03131"/>
</svg>
