<svg width="25" height="17" viewBox="0 0 25 17" fill="none" xmlns="http://www.w3.org/2000/svg">
<path d="M7.71505 0.529992C5.74705 0.529992 4.03205 1.80999 2.84405 3.64299C1.50405 5.70799 0.800049 8.38299 0.800049 10.949C0.800049 11.655 0.870049 12.318 1.01005 12.922C1.07878 13.2143 1.16732 13.5017 1.27505 13.782C1.37821 14.0452 1.50228 14.2996 1.64605 14.543C2.34205 15.702 3.46405 16.47 5.23905 16.47C6.73605 16.47 7.87205 15.799 9.20405 14.026C9.96405 13.014 10.348 12.4 11.867 9.70599L12.623 8.36699L12.809 8.04199C12.87 8.14199 12.93 8.23799 12.992 8.34199L15.144 11.937C15.868 13.147 16.809 14.493 17.614 15.251C18.66 16.238 19.606 16.471 20.674 16.471C21.7491 16.471 22.55 16.116 23.129 15.628C23.4523 15.352 23.7263 15.023 23.939 14.655C24.481 13.716 24.8 12.528 24.8 10.91C24.8 8.18999 24.119 5.55299 22.716 3.45999C21.434 1.54799 19.7591 0.529992 18 0.529992C16.953 0.529992 15.912 0.996992 14.947 1.83799C14.295 2.40799 13.69 3.12799 13.127 3.88799C12.437 3.01299 11.792 2.34099 11.169 1.83199C9.98705 0.865992 8.85405 0.528992 7.71505 0.528992V0.529992ZM17.875 2.58299C19.022 2.58299 20.063 3.34099 20.867 4.58199C21.999 6.32999 22.514 8.77699 22.514 10.982C22.514 12.53 22.146 13.882 20.675 13.882C20.095 13.882 19.648 13.652 19.011 12.878C18.515 12.277 17.668 11 16.179 8.51999L15.562 7.49199C15.161 6.82118 14.7425 6.16096 14.307 5.51199C14.377 5.40299 14.448 5.28799 14.518 5.18499C15.638 3.51799 16.635 2.58299 17.875 2.58299ZM7.67405 3.13599C8.93905 3.13599 9.73205 3.92699 10.349 4.58199C10.656 4.90899 11.086 5.45299 11.583 6.16099L10.563 7.72699C9.80605 8.88999 8.68105 10.744 7.72605 12.065C6.53505 13.714 5.91605 13.882 5.24005 13.882C4.71605 13.882 4.20205 13.645 3.85705 13.088C3.59405 12.662 3.39305 11.958 3.39305 11.042C3.39305 8.82099 4.02305 6.50699 5.05305 4.95399C5.50705 4.26699 6.01705 3.72799 6.58605 3.42099C6.91897 3.23599 7.29318 3.13796 7.67405 3.13599Z" fill="#F8F8F8"/>
</svg>
