<svg width="21" height="21" viewBox="0 0 21 21" fill="none" xmlns="http://www.w3.org/2000/svg">
<path d="M16.7403 5.1888C16.615 5.12405 16.493 5.05306 16.3748 4.97611C16.0311 4.74889 15.716 4.48117 15.4363 4.1787C14.7363 3.3778 14.4749 2.5653 14.3786 1.99644H14.3825C14.302 1.52426 14.3353 1.21875 14.3403 1.21875H11.1522V13.5466C11.1522 13.7121 11.1522 13.8757 11.1452 14.0373C11.1452 14.0574 11.1433 14.076 11.1421 14.0976C11.1421 14.1065 11.1421 14.1158 11.1402 14.1251C11.1402 14.1274 11.1402 14.1297 11.1402 14.1321C11.1066 14.5744 10.9648 15.0017 10.7273 15.3763C10.4898 15.751 10.1639 16.0615 9.77819 16.2807C9.37621 16.5094 8.92157 16.6293 8.45909 16.6287C6.9737 16.6287 5.76985 15.4175 5.76985 13.9217C5.76985 12.4259 6.9737 11.2147 8.45909 11.2147C8.74027 11.2144 9.01971 11.2586 9.28706 11.3458L9.29092 8.09964C8.47934 7.9948 7.65484 8.0593 6.86943 8.28907C6.08403 8.51883 5.35476 8.90887 4.72764 9.43459C4.17814 9.91203 3.71617 10.4817 3.36252 11.118C3.22795 11.35 2.72018 12.2824 2.6587 13.7956C2.62002 14.6545 2.87797 15.5444 3.00094 15.9121V15.9199C3.07829 16.1364 3.37799 16.8754 3.86642 17.4984C4.26027 17.9982 4.72559 18.4372 5.24739 18.8013V18.7936L5.25513 18.8013C6.79852 19.8501 8.50975 19.7812 8.50975 19.7812C8.80598 19.7693 9.7983 19.7812 10.9252 19.2472C12.1751 18.6551 12.8866 17.773 12.8866 17.773C13.3412 17.246 13.7027 16.6453 13.9555 15.9968C14.244 15.2385 14.3403 14.3289 14.3403 13.9654V7.4252C14.379 7.4484 14.8941 7.7891 14.8941 7.7891C14.8941 7.7891 15.6362 8.26477 16.794 8.57453C17.6247 8.79496 18.7439 8.84136 18.7439 8.84136V5.67646C18.3517 5.719 17.5555 5.59525 16.7403 5.1888Z" fill="#F8F8F8"/>
</svg>
