<svg width="24" height="19" viewBox="0 0 24 19" fill="none" xmlns="http://www.w3.org/2000/svg">
<g clip-path="url(#clip0_173_250)">
<path d="M19.1402 0.950043H5.45998C2.77594 0.950043 0.600098 3.20957 0.600098 5.99684V13.0985C0.600098 15.8858 2.77594 18.1453 5.45998 18.1453H19.1402C21.8243 18.1453 24.0001 15.8858 24.0001 13.0985V5.99684C24.0001 3.20957 21.8243 0.950043 19.1402 0.950043ZM15.8535 9.89321L9.45482 13.0624C9.28432 13.1468 9.08738 13.0177 9.08738 12.8216V6.28517C9.08738 6.08624 9.2895 5.95731 9.46035 6.04723L15.859 9.41449C16.0493 9.51459 16.046 9.79791 15.8535 9.89321Z" fill="#F8F8F8"/>
</g>
<defs>
<clipPath id="clip0_173_250">
<rect width="23.4" height="17.1" fill="white" transform="translate(0.600098 0.950012)"/>
</clipPath>
</defs>
</svg>
